<?xml version="1.0" standalone="no"?>
<!DOCTYPE svg PUBLIC "-//W3C//DTD SVG 20010904//EN"
 "http://www.w3.org/TR/2001/REC-SVG-20010904/DTD/svg10.dtd">
<svg version="1.0" xmlns="http://www.w3.org/2000/svg"
 width="1280.000000pt" height="1280.000000pt" viewBox="0 0 1280.000000 1280.000000"
 preserveAspectRatio="xMidYMid meet">
<metadata>
Created by potrace 1.15, written by Peter Selinger 2001-2017
</metadata>
<g transform="translate(0.000000,1280.000000) scale(0.100000,-0.100000)"
fill="#000000" stroke="none">
<path d="M5165 12210 c-576 -124 -1075 -309 -1581 -586 l-106 -58 6 -51 c3
-27 26 -241 51 -475 25 -234 49 -456 53 -493 l8 -68 -150 -113 c-273 -206
-516 -427 -729 -666 -67 -74 -126 -136 -133 -138 -9 -2 -955 182 -1050 204
-18 5 -35 -16 -111 -133 -258 -394 -482 -855 -634 -1303 -48 -140 -99 -312
-99 -334 0 -8 186 -164 413 -347 226 -182 416 -335 421 -339 5 -5 -1 -71 -13
-152 -39 -272 -54 -464 -55 -743 0 -148 3 -317 7 -376 l8 -105 -455 -304
c-251 -167 -456 -307 -456 -312 0 -21 64 -309 99 -443 100 -381 228 -717 418
-1095 73 -146 140 -273 147 -283 15 -20 -48 -25 889 77 l208 22 101 -134 c208
-277 478 -571 718 -783 52 -46 96 -89 98 -96 3 -9 -180 -947 -204 -1049 -5
-18 12 -33 105 -93 377 -246 763 -441 1176 -596 205 -77 477 -160 497 -153 8
3 165 193 349 423 l334 416 45 -5 c25 -3 90 -12 145 -20 293 -45 808 -65 1086
-43 l95 8 304 -456 303 -455 36 6 c547 94 1177 320 1709 612 l103 57 -5 50
c-3 28 -26 241 -51 475 -25 234 -49 456 -53 493 l-8 68 130 98 c284 214 575
481 787 721 46 52 89 96 96 98 9 3 947 -180 1049 -204 18 -5 33 14 101 118
205 316 347 582 487 911 122 287 267 714 253 749 -4 11 -718 594 -825 674 -13
9 -12 30 6 156 40 272 55 464 56 743 0 149 -3 317 -7 376 l-8 105 455 304
c251 167 456 306 456 310 0 20 -53 263 -85 388 -118 471 -296 921 -538 1360
l-51 93 -56 -5 c-30 -4 -221 -24 -425 -47 -203 -22 -423 -45 -488 -52 l-118
-13 -113 150 c-63 83 -158 203 -212 266 -110 130 -425 447 -527 530 -37 30
-67 62 -67 70 0 9 47 252 105 540 58 288 105 525 105 526 0 7 -303 197 -420
265 -205 117 -533 274 -755 362 -271 106 -580 205 -608 194 -10 -4 -586 -711
-673 -825 -9 -13 -30 -12 -156 6 -282 42 -462 55 -758 56 -157 0 -326 -3 -376
-7 l-90 -8 -304 455 c-196 295 -309 456 -319 455 -9 0 -74 -13 -146 -29z
m1420 -2851 c812 -53 1549 -422 2076 -1039 302 -352 531 -814 633 -1271 147
-662 68 -1333 -228 -1944 -252 -521 -641 -947 -1136 -1245 -951 -574 -2153
-565 -3096 22 -741 461 -1242 1226 -1369 2090 -85 587 7 1182 265 1717 477
984 1431 1615 2530 1674 125 7 173 7 325 -4z"/>
</g>
</svg>
